<svg width="150" height="50" viewBox="0 0 150 50" fill="none" xmlns="http://www.w3.org/2000/svg">
  <g clip-path="url(#clip0_11697_978)">
    <rect width="150" height="50" rx="10" fill="white" />
    <path
      d="M10.5855 48.9063C10.2036 48.9063 9.83092 48.9014 9.45199 48.8929C8.66704 48.8827 7.88392 48.8146 7.10906 48.6891C6.38654 48.565 5.68661 48.3341 5.03238 48.0041C4.38412 47.6769 3.79285 47.2478 3.28123 46.7334C2.76216 46.225 2.33001 45.6353 2.0019 44.9878C1.67021 44.336 1.44066 43.6374 1.32125 42.9163C1.19233 42.1414 1.12261 41.3579 1.11266 40.5725C1.10464 40.3089 1.09424 39.4313 1.09424 39.4313V10.5555C1.09424 10.5555 1.10527 9.69123 1.11266 9.43723C1.12222 8.65311 1.19157 7.87086 1.32012 7.09723C1.43977 6.37413 1.66951 5.67351 2.0014 5.01961C2.32825 4.37249 2.75795 3.78237 3.27383 3.27212C3.78917 2.75703 4.38236 2.32574 5.03175 1.994C5.6845 1.66512 6.38311 1.43594 7.10417 1.31412C7.88159 1.1874 8.66744 1.11892 9.45512 1.10925L10.5862 1.09375H139.407L140.552 1.10962C141.332 1.11887 142.111 1.18681 142.881 1.31287C143.61 1.43625 144.316 1.66707 144.976 1.99775C146.277 2.66629 147.335 3.724 148.003 5.02261C148.33 5.67203 148.556 6.36697 148.674 7.08386C148.804 7.86381 148.877 8.6522 148.892 9.44273C148.896 9.79673 148.896 10.177 148.896 10.5555C148.906 11.0242 148.906 11.4703 148.906 11.9202V38.0809C148.906 38.535 148.906 38.9782 148.896 39.4249C148.896 39.8314 148.896 40.2038 148.891 40.587C148.876 41.3635 148.804 42.1379 148.676 42.9039C148.559 43.6302 148.331 44.3343 147.999 44.9914C147.669 45.6319 147.239 46.2165 146.726 46.7235C146.214 47.2407 145.622 47.6723 144.972 48.0016C144.314 48.3341 143.609 48.5658 142.881 48.6889C142.107 48.8151 141.323 48.8832 140.538 48.8928C140.163 48.9015 139.788 48.906 139.413 48.9061L138.055 48.9086L10.5855 48.9063Z"
      fill="white" />
    <path
      d="M31.3334 24.8617C31.3475 23.7767 31.6365 22.713 32.1735 21.7693C32.7106 20.8257 33.4783 20.0328 34.4053 19.4646C33.8164 18.6259 33.0396 17.9358 32.1365 17.4489C31.2334 16.962 30.2289 16.6918 29.2027 16.6598C27.0138 16.4307 24.8918 17.9661 23.7763 17.9661C22.6394 17.9661 20.9219 16.6826 19.0725 16.7206C17.8763 16.7591 16.7106 17.106 15.6888 17.7274C14.667 18.3488 13.8241 19.2236 13.2421 20.2664C10.721 24.6189 12.6015 31.0155 15.0164 34.5339C16.2245 36.2567 17.6366 38.181 19.4843 38.1128C21.2923 38.038 21.9677 36.963 24.1501 36.963C26.3124 36.963 26.9459 38.1128 28.8311 38.0694C30.7712 38.038 31.9936 36.339 33.1594 34.5999C34.0275 33.3723 34.6955 32.0156 35.1387 30.5799C34.0115 30.1045 33.0497 29.3088 32.373 28.2919C31.6963 27.2751 31.3348 26.0821 31.3334 24.8617ZM27.7727 14.3461C28.8306 13.0797 29.3518 11.452 29.2255 9.80859C27.6094 9.9779 26.1166 10.7482 25.0445 11.966C24.5202 12.5609 24.1188 13.253 23.8629 14.0027C23.6071 14.7524 23.502 15.5451 23.5535 16.3353C24.3619 16.3436 25.1617 16.1689 25.8925 15.8243C26.6234 15.4797 27.2662 14.9744 27.7727 14.3461ZM53.0255 33.9245H47.0921L45.6673 38.12H43.154L48.7741 22.5976H51.3851L57.0051 38.12H54.4492L53.0255 33.9245ZM47.7066 31.9884H52.4097L50.0913 25.1794H50.0263L47.7066 31.9884ZM69.1423 32.4622C69.1423 35.9789 67.2546 38.2384 64.4062 38.2384C63.6846 38.276 62.967 38.1103 62.3355 37.7601C61.704 37.4099 61.1841 36.8895 60.8354 36.2584H60.7815V41.8639H58.4519V26.8029H60.7068V28.6853H60.7497C61.1144 28.0572 61.643 27.5395 62.2794 27.1872C62.9157 26.8349 63.6359 26.6612 64.3633 26.6846C67.2436 26.6846 69.1423 28.9552 69.1423 32.4622ZM66.7478 32.4622C66.7478 30.1709 65.5605 28.6645 63.7488 28.6645C61.9689 28.6645 60.7718 30.2025 60.7718 32.462C60.7718 34.7424 61.9689 36.2695 63.7488 36.2695C65.5605 36.2695 66.7478 34.7743 66.7478 32.4622ZM81.6338 32.4622C81.6338 35.9789 79.7457 38.2384 76.8971 38.2384C76.1755 38.276 75.4579 38.1103 74.8264 37.7601C74.1949 37.4099 73.675 36.8895 73.3264 36.2584H73.2725V41.8639H70.9429V26.8029H73.1978V28.6853H73.2406C73.6053 28.0572 74.134 27.5395 74.7703 27.1872C75.4066 26.8349 76.1268 26.6612 76.8542 26.6846C79.7347 26.6846 81.6338 28.9552 81.6338 32.4622ZM79.2389 32.4622C79.2389 30.1709 78.0515 28.6645 76.2398 28.6645C74.4598 28.6645 73.2627 30.2025 73.2627 32.462C73.2627 34.7424 74.4598 36.2695 76.2398 36.2695C78.0515 36.2695 79.2389 34.7743 79.2389 32.4622ZM89.8882 33.7952C90.0608 35.3344 91.5604 36.3452 93.6095 36.3452C95.573 36.3452 96.9856 35.3344 96.9856 33.9464C96.9856 32.7415 96.1336 32.0202 94.1164 31.5258L92.099 31.0412C89.2406 30.3527 87.9137 29.0197 87.9137 26.8566C87.9137 24.1783 90.2542 22.3388 93.5765 22.3388C96.8669 22.3388 99.1217 24.1783 99.1977 26.8566H96.8461C96.7054 25.3076 95.4212 24.3724 93.5447 24.3724C91.668 24.3724 90.3839 25.3186 90.3839 26.6954C90.3839 27.7929 91.2041 28.4387 93.2105 28.9329L94.9254 29.3529C98.1192 30.106 99.4449 31.3854 99.4449 33.6558C99.4449 36.5599 97.1264 38.3788 93.4368 38.3788C89.9847 38.3788 87.6541 36.6025 87.5035 33.795L89.8882 33.7952ZM104.475 24.1248V26.8029H106.633V28.6425H104.475V34.8815C104.475 35.8508 104.907 36.3024 105.856 36.3024C106.112 36.2979 106.368 36.28 106.622 36.2487V38.0774C106.195 38.1568 105.762 38.1927 105.328 38.1846C103.03 38.1846 102.134 37.3241 102.134 35.1293V28.6425H100.484V26.8029H102.134V24.1248H104.475ZM107.882 32.4622C107.882 28.9013 109.985 26.6638 113.264 26.6638C116.555 26.6638 118.648 28.9013 118.648 32.4622C118.648 36.0327 116.566 38.2604 113.264 38.2604C109.964 38.2604 107.882 36.0327 107.882 32.4622ZM116.274 32.4622C116.274 30.0195 115.152 28.5778 113.264 28.5778C111.377 28.5778 110.254 30.0304 110.254 32.4622C110.254 34.9145 111.377 36.3452 113.264 36.3452C115.152 36.3452 116.274 34.9145 116.274 32.4622ZM120.568 26.8029H122.79V28.7292H122.844C122.994 28.1276 123.348 27.5959 123.845 27.2235C124.342 26.8512 124.953 26.6609 125.574 26.6846C125.842 26.6836 126.11 26.7127 126.372 26.7712V28.944C126.033 28.8408 125.68 28.7934 125.325 28.8037C124.987 28.79 124.65 28.8495 124.336 28.9781C124.023 29.1067 123.742 29.3014 123.511 29.5487C123.28 29.7961 123.106 30.0903 123 30.4111C122.895 30.732 122.86 31.0718 122.898 31.4074V38.12H120.568V26.8029ZM137.112 34.796C136.799 36.8505 134.793 38.2604 132.226 38.2604C128.924 38.2604 126.875 36.0547 126.875 32.5158C126.875 28.966 128.935 26.6638 132.128 26.6638C135.268 26.6638 137.242 28.8147 137.242 32.246V33.0419H129.227V33.1823C129.19 33.5988 129.242 34.0184 129.38 34.4132C129.518 34.808 129.739 35.169 130.028 35.4722C130.316 35.7754 130.667 36.0138 131.055 36.1717C131.443 36.3296 131.861 36.4033 132.28 36.3879C132.83 36.4393 133.383 36.3122 133.855 36.0254C134.327 35.7386 134.694 35.3074 134.901 34.796H137.112ZM129.238 31.4184H134.912C134.933 31.0439 134.876 30.6691 134.744 30.3176C134.613 29.9661 134.41 29.6454 134.149 29.3757C133.888 29.106 133.573 28.8931 133.225 28.7503C132.878 28.6075 132.504 28.538 132.128 28.546C131.749 28.5438 131.373 28.6165 131.021 28.7599C130.67 28.9033 130.351 29.1147 130.083 29.3817C129.814 29.6488 129.601 29.9662 129.456 30.3158C129.311 30.6654 129.237 31.0401 129.238 31.4184ZM47.4153 10.9137C47.9037 10.8788 48.3937 10.9523 48.8502 11.1291C49.3066 11.3059 49.718 11.5815 50.0547 11.9361C50.3913 12.2906 50.6449 12.7152 50.7971 13.1793C50.9492 13.6434 50.9962 14.1354 50.9346 14.6198C50.9346 17.0026 49.6431 18.3723 47.4153 18.3723H44.7136V10.9136L47.4153 10.9137ZM45.8753 17.3175H47.2855C47.6345 17.3382 47.9837 17.2812 48.3078 17.1504C48.6319 17.0196 48.9226 16.8184 49.1589 16.5615C49.3952 16.3045 49.571 15.9983 49.6736 15.665C49.7762 15.3317 49.803 14.9799 49.7521 14.635C49.7993 14.2914 49.7698 13.9417 49.6656 13.6109C49.5614 13.2801 49.3852 12.9763 49.1494 12.7214C48.9137 12.4665 48.6244 12.2667 48.3021 12.1364C47.9799 12.0061 47.6327 11.9485 47.2855 11.9677H45.8753V17.3175ZM52.2469 15.5555C52.2114 15.1856 52.2538 14.8123 52.3715 14.4598C52.4891 14.1072 52.6793 13.783 52.9299 13.508C53.1806 13.233 53.4861 13.0133 53.8268 12.863C54.1676 12.7126 54.5361 12.635 54.9087 12.635C55.2814 12.635 55.6499 12.7126 55.9906 12.863C56.3314 13.0133 56.6369 13.233 56.8875 13.508C57.1382 13.783 57.3284 14.1072 57.446 14.4598C57.5636 14.8123 57.606 15.1856 57.5706 15.5555C57.6068 15.9258 57.565 16.2996 57.4477 16.6528C57.3304 17.0061 57.1403 17.3309 56.8896 17.6065C56.6389 17.8821 56.3332 18.1023 55.992 18.2531C55.6509 18.4038 55.2819 18.4816 54.9087 18.4816C54.5356 18.4816 54.1666 18.4038 53.8254 18.2531C53.4843 18.1023 53.1785 17.8821 52.9278 17.6065C52.6771 17.3309 52.487 17.0061 52.3698 16.6528C52.2525 16.2996 52.2106 15.9258 52.2469 15.5555ZM56.4248 15.5555C56.4248 14.3353 55.8752 13.6218 54.9106 13.6218C53.9423 13.6218 53.3976 14.3353 53.3976 15.5555C53.3976 16.7853 53.9424 17.4933 54.9106 17.4933C55.8752 17.4933 56.4248 16.7805 56.4248 15.5555ZM64.6473 18.3722H63.4916L62.3251 14.2267H62.237L61.0754 18.3722H59.9308L58.3749 12.7435H59.5047L60.5159 17.0385H60.5991L61.7596 12.7435H62.8283L63.9888 17.0385H64.0769L65.0831 12.7435H66.1971L64.6473 18.3722ZM67.5056 12.7436H68.578V13.6377H68.6612C68.8024 13.3165 69.0406 13.0473 69.3425 12.8675C69.6445 12.6878 69.9951 12.6064 70.3457 12.6348C70.6203 12.6143 70.8961 12.6556 71.1525 12.7557C71.409 12.8558 71.6396 13.0122 71.8272 13.2132C72.0148 13.4143 72.1547 13.6549 72.2364 13.9171C72.3182 14.1794 72.3397 14.4566 72.2994 14.7283V18.3721H71.1854V15.0073C71.1854 14.1028 70.7912 13.653 69.9673 13.653C69.7809 13.6443 69.5947 13.676 69.4217 13.7458C69.2487 13.8156 69.0928 13.9218 68.9648 14.0573C68.8368 14.1928 68.7396 14.3543 68.6801 14.5307C68.6205 14.7071 68.5998 14.8942 68.6196 15.0793V18.3722H67.5056V12.7436ZM74.0743 10.5462H75.1882V18.3722H74.0743V10.5462ZM76.7368 15.5555C76.7013 15.1855 76.7437 14.8122 76.8614 14.4596C76.979 14.107 77.1692 13.7827 77.4199 13.5077C77.6706 13.2327 77.9761 13.013 78.3169 12.8626C78.6577 12.7122 79.0263 12.6346 79.399 12.6346C79.7717 12.6346 80.1402 12.7122 80.481 12.8626C80.8218 13.013 81.1274 13.2327 81.378 13.5077C81.6287 13.7827 81.819 14.107 81.9366 14.4596C82.0542 14.8122 82.0967 15.1855 82.0612 15.5555C82.0972 15.9257 82.0552 16.2994 81.9379 16.6526C81.8205 17.0057 81.6303 17.3304 81.3796 17.6059C81.1289 17.8814 80.8232 18.1015 80.4821 18.2522C80.141 18.4028 79.772 18.4806 79.399 18.4806C79.0259 18.4806 78.657 18.4028 78.3159 18.2522C77.9748 18.1015 77.669 17.8814 77.4183 17.6059C77.1676 17.3304 76.9774 17.0057 76.8601 16.6526C76.7427 16.2994 76.7007 15.9257 76.7368 15.5555ZM80.9147 15.5555C80.9147 14.3353 80.365 13.6218 79.4005 13.6218C78.4321 13.6218 77.8875 14.3353 77.8875 15.5555C77.8875 16.7853 78.4323 17.4933 79.4005 17.4933C80.365 17.4933 80.9147 16.7805 80.9147 15.5555ZM83.2338 16.7805C83.2338 15.7672 83.9903 15.1831 85.3332 15.1001L86.8621 15.0122V14.5263C86.8621 13.9318 86.468 13.5962 85.7066 13.5962C85.0847 13.5962 84.6538 13.8238 84.5302 14.2218H83.4517C83.5655 13.255 84.4775 12.635 85.758 12.635C87.1731 12.635 87.9712 13.3375 87.9712 14.5263V18.3722H86.8988V17.5812H86.8107C86.6318 17.8649 86.3806 18.0962 86.0828 18.2515C85.7849 18.4068 85.4511 18.4804 85.1153 18.4649C84.8784 18.4895 84.6389 18.4643 84.4123 18.3909C84.1857 18.3176 83.9771 18.1977 83.7998 18.039C83.6225 17.8802 83.4806 17.6863 83.3831 17.4695C83.2856 17.2527 83.2348 17.018 83.2338 16.7805ZM86.8621 16.2995V15.8288L85.4837 15.9167C84.7064 15.9686 84.3538 16.2323 84.3538 16.7285C84.3538 17.2351 84.7946 17.5299 85.4005 17.5299C85.5781 17.5479 85.7574 17.53 85.9279 17.4774C86.0984 17.4248 86.2565 17.3385 86.3929 17.2237C86.5293 17.1089 86.6411 16.9679 86.7217 16.8091C86.8023 16.6503 86.85 16.477 86.8621 16.2995ZM89.4353 15.5555C89.4353 13.7768 90.3521 12.6502 91.7782 12.6502C92.131 12.634 92.4811 12.7182 92.7876 12.8931C93.0941 13.068 93.3444 13.3262 93.5092 13.6377H93.5924V10.5461H94.7063V18.3721H93.6389V17.4827H93.5508C93.3733 17.7921 93.1143 18.0471 92.8019 18.2202C92.4895 18.3934 92.1355 18.4779 91.7783 18.4648C90.3423 18.4648 89.4353 17.3382 89.4353 15.5555ZM90.586 15.5555C90.586 16.7492 91.1503 17.4677 92.094 17.4677C93.0329 17.4677 93.6132 16.739 93.6132 15.5602C93.6132 14.3872 93.0268 13.6481 92.094 13.6481C91.1564 13.6481 90.586 14.3713 90.586 15.5555ZM99.3152 15.5555C99.2797 15.1856 99.3221 14.8123 99.4397 14.4598C99.5573 14.1072 99.7476 13.783 99.9982 13.508C100.249 13.233 100.554 13.0133 100.895 12.863C101.236 12.7126 101.604 12.635 101.977 12.635C102.35 12.635 102.718 12.7126 103.059 12.863C103.4 13.0133 103.705 13.233 103.956 13.508C104.206 13.783 104.397 14.1072 104.514 14.4598C104.632 14.8123 104.674 15.1856 104.639 15.5555C104.675 15.9258 104.633 16.2996 104.516 16.6528C104.399 17.0061 104.209 17.3309 103.958 17.6065C103.707 17.8821 103.401 18.1023 103.06 18.2531C102.719 18.4038 102.35 18.4816 101.977 18.4816C101.604 18.4816 101.235 18.4038 100.894 18.2531C100.553 18.1023 100.247 17.8821 99.9961 17.6065C99.7454 17.3309 99.5553 17.0061 99.438 16.6528C99.3207 16.2996 99.2789 15.9258 99.3152 15.5555ZM103.493 15.5555C103.493 14.3353 102.943 13.6218 101.979 13.6218C101.011 13.6218 100.466 14.3353 100.466 15.5555C100.466 16.7853 101.011 17.4933 101.979 17.4933C102.943 17.4933 103.493 16.7805 103.493 15.5555ZM106.133 12.7436H107.206V13.6377H107.289C107.43 13.3165 107.668 13.0473 107.97 12.8675C108.272 12.6878 108.623 12.6064 108.974 12.6348C109.248 12.6143 109.524 12.6556 109.78 12.7557C110.037 12.8558 110.267 13.0122 110.455 13.2132C110.643 13.4143 110.783 13.6549 110.864 13.9171C110.946 14.1794 110.968 14.4566 110.927 14.7283V18.3721H109.813V15.0073C109.813 14.1028 109.419 13.653 108.595 13.653C108.409 13.6443 108.223 13.676 108.05 13.7458C107.877 13.8156 107.721 13.9218 107.593 14.0573C107.465 14.1928 107.368 14.3543 107.308 14.5307C107.248 14.7071 107.228 14.8942 107.247 15.0793V18.3722H106.134L106.133 12.7436ZM117.222 11.3422V12.7692H118.445V13.7048H117.222V16.5991C117.222 17.1887 117.465 17.4469 118.02 17.4469C118.162 17.4465 118.304 17.4379 118.445 17.4212V18.3466C118.244 18.3823 118.042 18.4012 117.839 18.4033C116.6 18.4033 116.107 17.9687 116.107 16.8836V13.7048H115.21V12.7691H116.107V11.3423L117.222 11.3422ZM119.966 10.5462H121.07V13.6481H121.159C121.307 13.3239 121.551 13.0532 121.859 12.8727C122.167 12.6923 122.524 12.6109 122.88 12.6397C123.153 12.6249 123.426 12.6704 123.68 12.7729C123.933 12.8755 124.161 13.0326 124.346 13.233C124.532 13.4335 124.671 13.6723 124.754 13.9325C124.836 14.1926 124.86 14.4678 124.824 14.7382V18.3722H123.708V15.0122C123.708 14.1131 123.288 13.6578 122.501 13.6578C122.31 13.6422 122.117 13.6684 121.937 13.7348C121.757 13.8011 121.593 13.9059 121.458 14.0418C121.323 14.1777 121.219 14.3415 121.153 14.5216C121.088 14.7018 121.063 14.894 121.08 15.0848V18.3722H119.966V10.5462ZM131.319 16.8523C131.167 17.3668 130.84 17.8118 130.392 18.1095C129.945 18.4072 129.407 18.5386 128.873 18.4808C128.501 18.4906 128.132 18.4196 127.79 18.2727C127.448 18.1258 127.143 17.9065 126.895 17.6301C126.647 17.3537 126.462 17.0267 126.353 16.6719C126.245 16.3172 126.215 15.9431 126.266 15.5756C126.216 15.207 126.246 14.832 126.355 14.4762C126.463 14.1203 126.647 13.7918 126.894 13.513C127.141 13.2341 127.445 13.0114 127.785 12.8599C128.126 12.7084 128.495 12.6316 128.868 12.6348C130.439 12.6348 131.386 13.7048 131.386 15.4723V15.86H127.4V15.9222C127.383 16.1288 127.409 16.3367 127.477 16.5326C127.545 16.7285 127.653 16.9082 127.794 17.06C127.936 17.2118 128.108 17.3325 128.299 17.4142C128.49 17.496 128.696 17.537 128.904 17.5347C129.17 17.5666 129.44 17.5188 129.679 17.3973C129.918 17.2757 130.116 17.0861 130.246 16.8523H131.319ZM127.4 15.0385H130.251C130.265 14.8495 130.24 14.6598 130.176 14.4814C130.112 14.303 130.011 14.1399 129.88 14.0026C129.75 13.8653 129.591 13.7568 129.416 13.684C129.241 13.6113 129.052 13.576 128.862 13.5803C128.669 13.5779 128.478 13.614 128.3 13.6864C128.121 13.7588 127.959 13.8662 127.823 14.0021C127.687 14.1379 127.579 14.2997 127.506 14.4777C127.434 14.6557 127.398 14.8463 127.4 15.0385Z"
      fill="black" />
    <rect x="1" y="1" width="148" height="48" rx="9" stroke="black" stroke-width="2" />
  </g>
  <defs>
    <clipPath id="clip0_11697_978">
      <rect width="150" height="50" rx="10" fill="white" />
    </clipPath>
  </defs>
</svg>
