<svg width="150" height="50" viewBox="0 0 150 50" fill="none" xmlns="http://www.w3.org/2000/svg">
  <g clip-path="url(#clip0_11698_1004)">
    <path
      d="M144.444 50H5.55556C2.50004 50 0 47.1875 0 43.75V6.25003C0 2.8125 2.49999 0 5.55556 0H144.444C147.5 0 150 2.8125 150 6.25003V43.75C150 47.1875 147.5 50 144.444 50Z"
      fill="black" />
    <path
      d="M52.6873 14.3998C52.6873 15.3322 52.4116 16.0747 51.8595 16.6286C51.2323 17.2873 50.415 17.6168 49.4102 17.6168C48.448 17.6168 47.6299 17.283 46.9571 16.6143C46.2831 15.9461 45.9468 15.1175 45.9468 14.1289C45.9468 13.1399 46.2831 12.3118 46.9571 11.6431C47.6299 10.975 48.448 10.6406 49.4102 10.6406C49.8877 10.6406 50.3448 10.7342 50.7788 10.9207C51.2128 11.1076 51.5609 11.3558 51.8213 11.6666L51.2353 12.2539C50.794 11.7257 50.1863 11.4618 49.4102 11.4618C48.7085 11.4618 48.1017 11.7088 47.5896 12.2031C47.0774 12.6979 46.8213 13.3395 46.8213 14.1289C46.8213 14.9185 47.0774 15.56 47.5896 16.0548C48.1017 16.5491 48.7085 16.796 49.4102 16.796C50.1547 16.796 50.7753 16.5478 51.2723 16.0505C51.5948 15.7265 51.7813 15.2762 51.8313 14.698H49.4102V13.8959H52.6408C52.672 14.0703 52.6872 14.2377 52.6872 14.3998"
      fill="white" />
    <path
      d="M52.687 14.3998H52.5759C52.575 15.311 52.3093 16.0186 51.7806 16.5499L51.7794 16.5508L51.7789 16.5517C51.1717 17.1876 50.3912 17.5041 49.4099 17.5055C48.4734 17.5041 47.6895 17.1842 47.0349 16.5356C46.3818 15.8856 46.0588 15.0922 46.0576 14.1289C46.0588 13.1651 46.3818 12.3722 47.0349 11.7227C47.6895 11.0736 48.4734 10.7532 49.4099 10.7519C49.8731 10.7519 50.3141 10.8424 50.7346 11.0228C51.1556 11.2045 51.4881 11.4427 51.7359 11.7384L51.821 11.6666L51.7425 11.5879L51.1565 12.1756L51.235 12.2539L51.3206 12.1827C50.8587 11.6283 50.2104 11.3489 49.4099 11.3505C48.6822 11.3496 48.0419 11.6101 47.5124 12.1231C46.9777 12.6378 46.709 13.3155 46.7099 14.1289C46.709 14.9423 46.9777 15.62 47.5124 16.1347C48.0419 16.6477 48.6822 16.9082 49.4099 16.9073C50.179 16.9086 50.8345 16.6473 51.3505 16.1291C51.6951 15.783 51.8905 15.3036 51.9417 14.7075L51.9521 14.5867H49.521V14.0072H52.6405V13.8959L52.531 13.9154C52.5615 14.0842 52.5759 14.2445 52.5759 14.3998H52.798C52.798 14.2306 52.7824 14.0568 52.7498 13.876L52.7334 13.7846H49.2989V14.8092H51.831V14.6979L51.7203 14.6884C51.6713 15.2484 51.4933 15.6701 51.1934 15.9718C50.716 16.4482 50.13 16.6834 49.4099 16.6847C48.7342 16.6838 48.1609 16.4508 47.6665 15.9748C47.1769 15.5005 46.9334 14.8949 46.9322 14.1289C46.9334 13.3629 47.1769 12.7573 47.6665 12.283C48.1609 11.807 48.7342 11.574 49.4099 11.5731C50.1613 11.5749 50.7286 11.8235 51.1501 12.3257L51.2282 12.4187L51.8996 11.7453L51.9717 11.6732L51.9061 11.5953C51.6331 11.2693 51.2694 11.0106 50.8223 10.8185C50.3744 10.6258 49.9018 10.5293 49.4099 10.5293C48.4222 10.5284 47.5697 10.8762 46.8783 11.5644C46.1843 12.2513 45.8345 13.1147 45.8355 14.1289C45.8345 15.1426 46.1843 16.0065 46.8787 16.6938C47.5697 17.3816 48.4222 17.729 49.4099 17.7281C50.4386 17.729 51.292 17.3867 51.9395 16.7055L51.8592 16.6286L51.9377 16.7073C52.5133 16.1313 52.7988 15.3531 52.798 14.3998H52.687ZM57.8084 11.6105H54.7724V13.7277H57.5103V14.5301H54.7724V16.6473H57.8084V17.4676H53.9165V10.7902H57.8084V11.6105Z"
      fill="white" />
    <path
      d="M57.8087 11.6113V11.5H54.6616V13.8398H57.3994V14.4193L54.6615 14.4196V16.7594H57.6975V17.3571H54.0279V10.9023H57.6975V11.6113H57.8087H57.9197V10.6797H53.8057V17.5797H57.9197V16.5368H54.8837V14.6422H57.6216V13.6172H54.8837V11.7226H57.9197V11.6113H57.8087ZM61.4211 17.4685H60.5639V11.6112H58.7019V10.7909H63.2831V11.6112H61.4211V17.4684"
      fill="white" />
    <path
      d="M61.4211 17.4685V17.3571H60.675V11.5H58.813V10.9023H63.172V11.5H61.31V17.4684H61.4211H61.5323V11.7226H63.3942V10.6797H58.5908V11.7225H60.4528V17.5797H61.5323V17.4684H61.4211M66.5978 17.4685V10.7909H67.4541V17.4684H66.5978"
      fill="white" />
    <path
      d="M66.5979 17.4685H66.709V10.9023H67.3431V17.3571H66.5979V17.4684V17.5797H67.5653V10.6797H66.4868V17.5797H66.5979V17.4684M71.2541 17.4685H70.3969V11.6112H68.535V10.7909H73.1161V11.6112H71.2541V17.4684"
      fill="white" />
    <path
      d="M71.254 17.4677V17.3564H70.5079V11.4993H68.6461V10.9016H73.0049V11.4993H71.1429V17.4677H71.254H71.3652V11.7218H73.2271V10.6789H68.4238V11.7218H70.2857V17.5789H71.3652V17.4676H71.254M77.5327 16.0457C78.0261 16.5461 78.6299 16.796 79.3439 16.796C80.0579 16.796 80.662 16.5461 81.1547 16.0457C81.6486 15.5454 81.896 14.9058 81.896 14.1289C81.896 13.3522 81.6486 12.7126 81.1547 12.2122C80.662 11.7118 80.0579 11.4618 79.3439 11.4618C78.6299 11.4618 78.0261 11.7118 77.5327 12.2122C77.0401 12.7126 76.7927 13.3521 76.7927 14.1289C76.7927 14.9058 77.0401 15.5454 77.5327 16.0457ZM81.7884 16.6047C81.1329 17.2798 80.3179 17.6168 79.3439 17.6168C78.3691 17.6168 77.5543 17.2798 76.9004 16.6047C76.2445 15.9304 75.9181 15.105 75.9181 14.1289C75.9181 13.1529 76.2445 12.3273 76.9004 11.6532C77.5544 10.9779 78.3691 10.6406 79.3439 10.6406C80.3127 10.6406 81.1256 10.9797 81.7841 11.6575C82.4416 12.3352 82.7706 13.159 82.7706 14.1289C82.7706 15.105 82.4424 15.9304 81.7884 16.6047Z"
      fill="white" />
    <path
      d="M77.5328 16.0457L77.4538 16.1239C77.9656 16.6443 78.604 16.9086 79.344 16.9073C80.0836 16.9086 80.7229 16.6443 81.2338 16.1239C81.7489 15.6031 82.008 14.9292 82.0072 14.1289C82.008 13.3286 81.7489 12.6548 81.2338 12.1339C80.7229 11.6135 80.0836 11.3492 79.344 11.3505C78.604 11.3492 77.9656 11.6135 77.4538 12.1339C76.9399 12.6548 76.6803 13.3286 76.6817 14.1289C76.6803 14.9292 76.9399 15.6031 77.4538 16.1239L77.5328 16.0457L77.6118 15.9674C77.1405 15.487 76.9048 14.8827 76.9039 14.1289C76.9048 13.3752 77.1405 12.7709 77.6118 12.2904C78.0874 11.8101 78.6556 11.5745 79.344 11.5731C80.0319 11.5745 80.6013 11.8101 81.0758 12.2904C81.548 12.7709 81.7837 13.3752 81.7845 14.1289C81.7837 14.8827 81.548 15.487 81.0758 15.9674C80.6013 16.4478 80.0319 16.6834 79.344 16.6847C78.6556 16.6834 78.0875 16.4478 77.6118 15.9674L77.5328 16.0457ZM81.7884 16.6047L81.709 16.5274C81.0719 17.1812 80.2928 17.5042 79.344 17.5055C78.3948 17.5041 77.6157 17.1812 76.9798 16.5274C76.344 15.8713 76.0303 15.0801 76.0294 14.1289C76.0303 13.1777 76.344 12.3865 76.9798 11.7305C77.6157 11.0766 78.3947 10.7532 79.344 10.7519C80.2867 10.7532 81.064 11.078 81.7047 11.7353C82.3427 12.3943 82.6582 13.1842 82.6596 14.1289C82.6582 15.0801 82.3436 15.8713 81.709 16.5274L81.7884 16.6047L81.8684 16.682C82.5419 15.9891 82.8826 15.1296 82.8818 14.1289C82.8826 13.1339 82.5406 12.2761 81.8639 11.5802C81.1869 10.8814 80.3388 10.5281 79.344 10.5293C78.344 10.5281 77.4933 10.8798 76.8206 11.5758V11.5753C76.1457 12.2687 75.8062 13.1282 75.8071 14.1289C75.8062 15.1296 76.1457 15.9891 76.8206 16.6825L76.8236 16.6856L76.8206 16.682C77.4933 17.378 78.344 17.729 79.344 17.7281C80.3436 17.729 81.1942 17.378 81.8684 16.682L81.7884 16.6047ZM83.9729 17.4677V10.7901H85.0155L88.2555 15.9847H88.2924L88.2555 14.6979V10.7901H89.1127V17.4676H88.2185L84.8288 12.0213H84.7919L84.8288 13.3085V17.4676H83.9729"
      fill="white" />
    <path
      d="M83.9727 17.4685H84.0839V10.9023H84.9536L88.1936 16.0969H88.4063L88.3664 14.6971V10.9023H89.0014V17.3571H88.2801L84.8903 11.9108H84.6777L84.7175 13.3112V17.3571H83.9728V17.4684V17.5797H84.9397V13.3076L84.9029 12.0191L84.7917 12.0221V12.1334H84.8287V12.0221L84.7344 12.0813L88.1568 17.5797H89.2236V10.6797H88.1442V14.7L88.1811 15.9886L88.2922 15.9856V15.8743H88.2553V15.9856L88.3495 15.9265L85.0768 10.6797H83.8617V17.5797H83.9728V17.4684M118.818 36.3879H120.891V22.4752H118.818L118.818 36.3879ZM137.492 27.4869L135.116 33.5187H135.045L132.578 27.4868H130.345L134.043 35.9175L131.935 40.6069H134.098L139.798 27.4868L137.492 27.4869ZM125.735 34.8077C125.055 34.8077 124.108 34.4677 124.108 33.6261C124.108 32.5522 125.288 32.1406 126.306 32.1406C127.218 32.1406 127.646 32.3375 128.2 32.6062C128.039 33.8947 126.931 34.8077 125.735 34.8077ZM125.985 27.1825C124.483 27.1825 122.929 27.8449 122.286 29.3127L124.126 30.0821C124.519 29.3127 125.251 29.0618 126.02 29.0618C127.092 29.0618 128.182 29.7065 128.2 30.8521V30.9951C127.825 30.7803 127.021 30.4582 126.038 30.4582C124.055 30.4582 122.035 31.5497 122.035 33.5904C122.035 35.4519 123.661 36.6513 125.483 36.6513C126.878 36.6513 127.646 36.0248 128.129 35.2911H128.2V36.3649H130.201V31.0307C130.201 28.561 128.361 27.1825 125.985 27.1825ZM113.171 29.1804H110.222V24.4115H113.171C114.721 24.4115 115.601 25.697 115.601 26.7959C115.601 27.8741 114.721 29.1804 113.171 29.1804ZM113.118 22.4752H108.15V36.3879H110.222V31.1168H113.118C115.416 31.1168 117.675 29.4504 117.675 26.7959C117.675 24.1416 115.416 22.4752 113.118 22.4752ZM86.0279 34.8102C84.5955 34.8102 83.3963 33.6091 83.3963 31.9593C83.3963 30.2922 84.5955 29.0727 86.0279 29.0727C87.442 29.0727 88.5518 30.2921 88.5518 31.9593C88.5518 33.6091 87.4419 34.8102 86.0279 34.8102ZM88.4085 28.2659H88.3369C87.8716 27.7102 86.9762 27.2082 85.8486 27.2082C83.4858 27.2082 81.32 29.2879 81.32 31.9593C81.32 34.6129 83.4857 36.6748 85.8486 36.6748C86.9762 36.6748 87.8716 36.1726 88.3369 35.5992H88.4085V36.2805C88.4085 38.0916 87.442 39.0598 85.8847 39.0598C84.6137 39.0598 83.8261 38.1451 83.5035 37.3742L81.6959 38.1272C82.215 39.3823 83.5934 40.9243 85.8847 40.9243C88.3191 40.9243 90.3777 39.4897 90.3777 35.9936V27.4951H88.4085V28.2659ZM91.8095 36.3879H93.886V22.4747H91.8095V36.3879ZM96.9471 31.798C96.8933 29.9691 98.3612 29.037 99.4172 29.037C100.241 29.037 100.939 29.4491 101.171 30.0413L96.9471 31.798ZM103.391 30.2203C102.998 29.1622 101.798 27.2082 99.3455 27.2082C96.9111 27.2082 94.8885 29.1266 94.8885 31.9415C94.8885 34.5951 96.8933 36.6748 99.5782 36.6748C101.745 36.6748 102.998 35.348 103.517 34.5772L101.906 33.5012C101.369 34.2903 100.635 34.8102 99.5782 34.8102C98.5222 34.8102 97.7705 34.326 97.2869 33.376L103.606 30.7581L103.391 30.2203ZM53.0488 28.6605V30.6685H57.846C57.7028 31.798 57.3268 32.6227 56.7539 33.1965C56.0561 33.896 54.9641 34.6668 53.0487 34.6668C50.0951 34.6668 47.7861 32.2822 47.7861 29.3239C47.7861 26.3656 50.0951 23.9807 53.0488 23.9807C54.642 23.9807 55.8052 24.6084 56.6645 25.4152L58.0786 23.999C56.8794 22.8512 55.2861 21.9727 53.0488 21.9727C49.0031 21.9727 45.6021 25.2718 45.6021 29.3239C45.6021 33.376 49.0031 36.6748 53.0488 36.6748C55.2327 36.6748 56.8794 35.958 58.1681 34.6129C59.4928 33.2861 59.9046 31.4215 59.9046 29.9156C59.9046 29.4491 59.869 29.0192 59.797 28.6605H53.0488ZM65.3586 34.8102C63.9263 34.8102 62.6911 33.6268 62.6911 31.9415C62.6911 30.2381 63.9263 29.0727 65.3586 29.0727C66.7904 29.0727 68.0256 30.2381 68.0256 31.9415C68.0256 33.6269 66.7904 34.8102 65.3586 34.8102ZM65.3586 27.2082C62.7449 27.2082 60.6146 29.1982 60.6146 31.9415C60.6146 34.6668 62.7449 36.6748 65.3586 36.6748C67.9719 36.6748 70.1021 34.6668 70.1021 31.9415C70.1021 29.1982 67.9719 27.2082 65.3586 27.2082ZM75.7066 34.8102C74.2749 34.8102 73.0395 33.6268 73.0395 31.9415C73.0395 30.2381 74.2749 29.0727 75.7066 29.0727C77.1385 29.0727 78.3737 30.2381 78.3737 31.9415C78.3737 33.6269 77.1385 34.8102 75.7066 34.8102ZM75.7066 27.2082C73.093 27.2082 70.9632 29.1982 70.9632 31.9415C70.9632 34.6668 73.093 36.6748 75.7066 36.6748C78.32 36.6748 80.4502 34.6668 80.4502 31.9415C80.4502 29.1982 78.3199 27.2082 75.7066 27.2082Z"
      fill="white" />
    <path
      d="M11.676 11.4706C11.3031 11.8076 11.0806 12.3696 11.0806 13.1157V12.947V37.5658V37.4036C11.0806 38.0926 11.2715 38.6247 11.5948 38.9674L11.6773 39.0465V39.0468C11.939 39.2834 12.2746 39.409 12.6591 39.4086C13.0349 39.4086 13.4577 39.2886 13.9039 39.0352L30.0319 29.8567L35.5718 26.7036C36.2754 26.3033 36.6703 25.7868 36.7364 25.2607V25.2586C36.6703 24.7313 36.2754 24.2152 35.5718 23.8148L30.0315 20.6621L13.904 11.4837C13.4568 11.2298 13.0337 11.1094 12.6569 11.1094C12.2728 11.1094 11.9377 11.2346 11.6761 11.4706H11.676Z"
      fill="#00C1FF" />
    <path
      d="M11.6774 39.0469L11.5948 38.9677C11.2715 38.6251 11.0806 38.093 11.0806 37.404V37.5662V12.9535V13.1161C11.0806 12.37 11.3031 11.808 11.676 11.471L25.4425 25.2594L11.6774 39.0469Z"
      fill="url(#paint0_linear_11698_1004)" />
    <path
      d="M30.0323 29.8555L25.4429 25.2578L30.0319 20.6609L35.5722 23.8136C36.2758 24.214 36.6707 24.73 36.7368 25.2574V25.2595C36.6707 25.7856 36.2758 26.3021 35.5722 26.7024L30.0324 29.8554"
      fill="url(#paint1_linear_11698_1004)" />
    <path
      d="M12.659 39.4082C12.2744 39.4086 11.9389 39.2829 11.6772 39.0464V39.0461L25.4424 25.2586L30.0318 29.8562L13.9037 39.0348C13.4575 39.2882 13.0348 39.4082 12.659 39.4082Z"
      fill="url(#paint2_linear_11698_1004)" />
    <path
      d="M25.4428 25.2578L11.6763 11.4694C11.938 11.2334 12.2731 11.1082 12.6571 11.1082C13.0339 11.1082 13.4571 11.2286 13.9042 11.4824L30.0318 20.6609L25.4427 25.2578"
      fill="url(#paint3_linear_11698_1004)" />
    <path
      d="M12.6594 39.5723C12.2749 39.5723 11.9389 39.4466 11.6772 39.2101L11.6768 39.2105C11.6757 39.2095 11.6745 39.2085 11.6733 39.2075L11.6017 39.1375C11.5995 39.1353 11.5974 39.1328 11.5947 39.1302L11.6773 39.0475C11.9389 39.284 12.2745 39.4097 12.6591 39.4092C13.0348 39.4092 13.4576 39.2893 13.9038 39.0358L30.0318 29.8574L30.1351 29.9609L30.0305 30.0204L13.9038 39.1984C13.4971 39.4293 13.1103 39.5497 12.761 39.5697C12.7271 39.5714 12.6933 39.5723 12.6594 39.5723Z"
      fill="url(#paint4_linear_11698_1004)" />
    <path
      d="M11.5948 39.1289C11.2715 38.7863 11.0806 38.2546 11.0806 37.5652V37.403C11.0806 38.092 11.2715 38.6241 11.5948 38.9668L11.6773 39.0459L11.5948 39.1289Z"
      fill="url(#paint5_linear_11698_1004)" />
    <path
      d="M30.1356 29.9589L30.0322 29.8554L35.5721 26.7023C36.2757 26.3021 36.6707 25.7855 36.7367 25.2595C36.7367 25.4525 36.6937 25.6455 36.6082 25.8334C36.4359 26.212 36.0905 26.5698 35.5721 26.8649L30.1356 29.959"
      fill="url(#paint6_linear_11698_1004)" />
    <path
      d="M36.7366 25.2578C36.6706 24.7305 36.2756 24.2145 35.5721 23.814L30.0317 20.6614L30.1351 20.5578H30.1355L35.5721 23.6519C36.3478 24.0936 36.7362 24.6756 36.7366 25.2578Z"
      fill="url(#paint7_linear_11698_1004)" />
    <path
      d="M11.0806 13.1172V12.9471C11.0806 12.8858 11.0822 12.8258 11.0854 12.7676V12.765C11.0854 12.7642 11.0854 12.7633 11.0857 12.7624V12.7559C11.1191 12.1624 11.3031 11.6995 11.5948 11.3904L11.676 11.4721C11.3031 11.8091 11.0806 12.3711 11.0806 13.1172Z"
      fill="url(#paint8_linear_11698_1004)" />
    <path
      d="M30.0314 20.6621L13.9038 11.4835C13.4567 11.2297 13.0336 11.1093 12.6568 11.1093C12.2727 11.1093 11.9376 11.2345 11.676 11.4706L11.5947 11.3888C11.6201 11.362 11.6465 11.336 11.6738 11.3111C11.6746 11.3102 11.676 11.3093 11.6768 11.3084C11.9364 11.0741 12.268 10.949 12.6486 10.9467H12.6568C13.0336 10.9467 13.4567 11.0671 13.9038 11.3211L30.1351 20.5582L30.1347 20.5586L30.0314 20.6621Z"
      fill="url(#paint9_linear_11698_1004)" />
  </g>
  <defs>
    <linearGradient id="paint0_linear_11698_1004" x1="19.8782" y1="12.6934" x2="8.01456" y2="24.5761"
      gradientUnits="userSpaceOnUse">
      <stop stop-color="#00A0FF" />
      <stop offset="0.00657" stop-color="#00A1FF" />
      <stop offset="0.2601" stop-color="#00BEFF" />
      <stop offset="0.5122" stop-color="#00D2FF" />
      <stop offset="0.7604" stop-color="#00DFFF" />
      <stop offset="1" stop-color="#00E3FF" />
    </linearGradient>
    <linearGradient id="paint1_linear_11698_1004" x1="37.594" y1="25.1784" x2="10.7084" y2="25.1784"
      gradientUnits="userSpaceOnUse">
      <stop stop-color="#FFE000" />
      <stop offset="0.4087" stop-color="#FFBD00" />
      <stop offset="0.7754" stop-color="#FFA500" />
      <stop offset="1" stop-color="#FF9C00" />
    </linearGradient>
    <linearGradient id="paint2_linear_11698_1004" x1="27.5952" y1="29.6299" x2="7.49144" y2="49.619"
      gradientUnits="userSpaceOnUse">
      <stop stop-color="#FF3A44" />
      <stop offset="1" stop-color="#C31162" />
    </linearGradient>
    <linearGradient id="paint3_linear_11698_1004" x1="8.12825" y1="9.42525" x2="17.0881" y2="18.3476"
      gradientUnits="userSpaceOnUse">
      <stop stop-color="#32A071" />
      <stop offset="0.0685" stop-color="#2DA771" />
      <stop offset="0.4762" stop-color="#15CF74" />
      <stop offset="0.8009" stop-color="#06E775" />
      <stop offset="1" stop-color="#00F076" />
    </linearGradient>
    <linearGradient id="paint4_linear_11698_1004" x1="27.5852" y1="32.8201" x2="11.4851" y2="48.9463"
      gradientUnits="userSpaceOnUse">
      <stop stop-color="#CC2E36" />
      <stop offset="1" stop-color="#9C0E4E" />
    </linearGradient>
    <linearGradient id="paint5_linear_11698_1004" x1="12.9145" y1="12.6924" x2="2.46279" y2="23.161"
      gradientUnits="userSpaceOnUse">
      <stop stop-color="#008DE0" />
      <stop offset="0.00657" stop-color="#008DE0" />
      <stop offset="0.2601" stop-color="#00A7E0" />
      <stop offset="0.5122" stop-color="#00B8E0" />
      <stop offset="0.7604" stop-color="#00C4E0" />
      <stop offset="1" stop-color="#00C7E0" />
    </linearGradient>
    <linearGradient id="paint6_linear_11698_1004" x1="37.5939" y1="25.2584" x2="10.7083" y2="25.2584"
      gradientUnits="userSpaceOnUse">
      <stop stop-color="#E0C500" />
      <stop offset="0.4087" stop-color="#E0A600" />
      <stop offset="0.7754" stop-color="#E09100" />
      <stop offset="1" stop-color="#E08900" />
    </linearGradient>
    <linearGradient id="paint7_linear_11698_1004" x1="37.5939" y1="25.2589" x2="10.7083" y2="25.2589"
      gradientUnits="userSpaceOnUse">
      <stop stop-color="#FFE840" />
      <stop offset="0.4087" stop-color="#FFCE40" />
      <stop offset="0.7754" stop-color="#FFBC40" />
      <stop offset="1" stop-color="#FFB540" />
    </linearGradient>
    <linearGradient id="paint8_linear_11698_1004" x1="12.9031" y1="12.7134" x2="2.83632" y2="22.3597"
      gradientUnits="userSpaceOnUse">
      <stop stop-color="#40B8FF" />
      <stop offset="0.00657" stop-color="#40B9FF" />
      <stop offset="0.2601" stop-color="#40CEFF" />
      <stop offset="0.5122" stop-color="#40DDFF" />
      <stop offset="0.7604" stop-color="#40E7FF" />
      <stop offset="1" stop-color="#40EAFF" />
    </linearGradient>
    <linearGradient id="paint9_linear_11698_1004" x1="8.10783" y1="12.3424" x2="15.2972" y2="19.5435"
      gradientUnits="userSpaceOnUse">
      <stop stop-color="#65B895" />
      <stop offset="0.0685" stop-color="#62BD95" />
      <stop offset="0.4762" stop-color="#50DB97" />
      <stop offset="0.8009" stop-color="#44ED98" />
      <stop offset="1" stop-color="#40F498" />
    </linearGradient>
    <clipPath id="clip0_11698_1004">
      <rect width="150" height="50" rx="10" fill="white" />
    </clipPath>
  </defs>
</svg>
