<svg width="254" height="190" viewBox="0 0 254 190" fill="none" xmlns="http://www.w3.org/2000/svg">
<path d="M212.69 189.66H41.0248C18.6263 189.66 0.40625 171.44 0.40625 149.042V40.6686C0.40625 18.2729 18.6291 0.0500488 41.0248 0.0500488H212.69C235.086 0.0500488 253.306 18.2729 253.306 40.6686V149.042C253.306 171.44 235.086 189.66 212.69 189.66ZM41.0248 11.9279C25.1764 11.9279 12.2841 24.8202 12.2841 40.6686V149.042C12.2841 164.89 25.1764 177.785 41.0248 177.785H212.69C228.539 177.785 241.431 164.89 241.431 149.042V40.6686C241.431 24.8202 228.539 11.9279 212.69 11.9279H41.0248Z" fill="#009EEB"/>
<path d="M31.44 41.2334C61.7993 70.8171 92.1585 100.398 122.518 129.982C128.177 135.495 136.863 126.829 131.195 121.304C100.836 91.7235 70.4766 62.1398 40.1173 32.5589C34.458 27.0429 25.7723 35.7117 31.44 41.2334Z" fill="#009EEB"/>
<path d="M131.195 129.982C161.554 100.401 191.913 70.8171 222.272 41.2362C227.937 35.7145 219.257 27.0429 213.595 32.5589C183.236 62.1398 152.877 91.7235 122.517 121.304C116.852 126.826 125.532 135.498 131.195 129.982Z" fill="#009EEB"/>
<path d="M221.938 150.922C201.737 131.763 181.533 112.607 161.332 93.4488C155.602 88.0171 146.911 96.6775 152.654 102.126C172.856 121.285 193.059 140.44 213.261 159.599C218.99 165.031 227.681 156.368 221.938 150.922Z" fill="#009EEB"/>
<path d="M40.9999 159.596C61.201 140.438 81.4049 121.282 101.606 102.123C107.347 96.6775 98.6611 88.0115 92.9287 93.446C72.7276 112.605 52.5237 131.76 32.3226 150.919C26.5818 156.365 35.2675 165.034 40.9999 159.596Z" fill="#009EEB"/>
</svg>
