<svg width="303" height="349" viewBox="0 0 303 349" fill="none" xmlns="http://www.w3.org/2000/svg">
  <path d="M266.613 86.0878V340.668H35.7531V8.00781H188.463L266.613 86.0878Z" fill="white" />
  <path
    d="M27.756 0V0.0039053H27.7501V348.664H274.6V348.66H274.606V82.76L191.776 5.72205e-06L27.756 0ZM43.752 16.004H182.272L182.276 16.0079V92.3439H258.612V332.664H43.7519L43.752 16.004Z"
    fill="#434343" />
  <path d="M27.748 121.258L0 149.006V275.006H302.35V149.006L274.606 121.258V149.006H27.746V121.258H27.748Z"
    fill="#ED1C24" />
  <path d="M186.975 253.018V176.654H237.536V189.966H203.12V208.162H234.18V221.473H203.12V253.018H186.975Z"
    fill="white" />
  <path
    d="M137.654 253.018H110.583V176.654H137.878C145.559 176.654 152.171 178.183 157.714 181.241C163.257 184.273 167.521 188.636 170.504 194.328C173.511 200.021 175.015 206.832 175.015 214.762C175.015 222.716 173.511 229.552 170.504 235.269C167.521 240.987 163.233 245.374 157.64 248.432C152.071 251.489 145.409 253.018 137.654 253.018ZM126.729 239.184H136.983C141.755 239.184 145.77 238.339 149.026 236.649C152.308 234.934 154.769 232.286 156.409 228.707C158.075 225.102 158.907 220.454 158.907 214.762C158.907 209.119 158.075 204.508 156.409 200.928C154.769 197.349 152.32 194.714 149.064 193.023C145.807 191.333 141.793 190.488 137.02 190.488H126.729V239.184Z"
    fill="white" />
  <path
    d="M42.6001 253.018V176.654H72.7279C78.5198 176.654 83.4541 177.76 87.5309 179.973C91.6076 182.16 94.7148 185.205 96.8526 189.108C99.0152 192.986 100.097 197.46 100.097 202.531C100.097 207.602 99.0028 212.077 96.8153 215.955C94.6278 219.833 91.4584 222.853 87.3071 225.015C83.1807 227.178 78.1843 228.259 72.3178 228.259H53.115V215.321H69.7077C72.8149 215.321 75.3753 214.786 77.3888 213.718C79.4272 212.624 80.9435 211.12 81.9378 209.206C82.957 207.267 83.4666 205.042 83.4666 202.531C83.4666 199.996 82.957 197.784 81.9378 195.894C80.9435 193.98 79.4272 192.501 77.3888 191.457C75.3505 190.388 72.7652 189.854 69.6331 189.854H58.7453V253.018H42.6001Z"
    fill="white" />
</svg>
